<mxfile host="app.diagrams.net" agent="Mozilla/5.0 (Windows NT 10.0; Win64; x64) AppleWebKit/537.36 (KHTML, like Gecko) Chrome/134.0.0.0 Safari/537.36" version="26.1.3">
  <diagram name="Página-1" id="bXf91uq4xTIuLi92Ajbj">
    <mxGraphModel dx="2501" dy="772" grid="1" gridSize="10" guides="1" tooltips="1" connect="1" arrows="1" fold="1" page="1" pageScale="1" pageWidth="827" pageHeight="1169" math="0" shadow="0">
      <root>
        <mxCell id="0" />
        <mxCell id="1" parent="0" />
        <mxCell id="ggw4CyNRnTy3p6Yb5EMk-1" value="categoria" style="rounded=0;whiteSpace=wrap;html=1;" vertex="1" parent="1">
          <mxGeometry x="280" y="180" width="120" height="60" as="geometry" />
        </mxCell>
        <mxCell id="ggw4CyNRnTy3p6Yb5EMk-2" value="nome" style="ellipse;whiteSpace=wrap;html=1;" vertex="1" parent="1">
          <mxGeometry x="220" y="70" width="100" height="50" as="geometry" />
        </mxCell>
        <mxCell id="ggw4CyNRnTy3p6Yb5EMk-3" value="codigo" style="ellipse;whiteSpace=wrap;html=1;" vertex="1" parent="1">
          <mxGeometry x="380" y="70" width="100" height="50" as="geometry" />
        </mxCell>
        <mxCell id="ggw4CyNRnTy3p6Yb5EMk-4" value="" style="endArrow=none;html=1;rounded=0;entryX=0.5;entryY=1;entryDx=0;entryDy=0;exitX=0.5;exitY=0;exitDx=0;exitDy=0;" edge="1" parent="1" source="ggw4CyNRnTy3p6Yb5EMk-1" target="ggw4CyNRnTy3p6Yb5EMk-2">
          <mxGeometry width="50" height="50" relative="1" as="geometry">
            <mxPoint x="390" y="420" as="sourcePoint" />
            <mxPoint x="440" y="370" as="targetPoint" />
          </mxGeometry>
        </mxCell>
        <mxCell id="ggw4CyNRnTy3p6Yb5EMk-5" value="" style="endArrow=none;html=1;rounded=0;exitX=0.5;exitY=0;exitDx=0;exitDy=0;entryX=0.5;entryY=1;entryDx=0;entryDy=0;" edge="1" parent="1" source="ggw4CyNRnTy3p6Yb5EMk-1" target="ggw4CyNRnTy3p6Yb5EMk-3">
          <mxGeometry width="50" height="50" relative="1" as="geometry">
            <mxPoint x="390" y="420" as="sourcePoint" />
            <mxPoint x="440" y="370" as="targetPoint" />
          </mxGeometry>
        </mxCell>
        <mxCell id="ggw4CyNRnTy3p6Yb5EMk-6" value="venda" style="rhombus;whiteSpace=wrap;html=1;" vertex="1" parent="1">
          <mxGeometry x="300" y="300" width="80" height="80" as="geometry" />
        </mxCell>
        <mxCell id="ggw4CyNRnTy3p6Yb5EMk-7" value="" style="endArrow=none;html=1;rounded=0;entryX=0.5;entryY=1;entryDx=0;entryDy=0;exitX=0.5;exitY=0;exitDx=0;exitDy=0;" edge="1" parent="1" source="ggw4CyNRnTy3p6Yb5EMk-6" target="ggw4CyNRnTy3p6Yb5EMk-1">
          <mxGeometry width="50" height="50" relative="1" as="geometry">
            <mxPoint x="390" y="420" as="sourcePoint" />
            <mxPoint x="440" y="370" as="targetPoint" />
          </mxGeometry>
        </mxCell>
        <mxCell id="ggw4CyNRnTy3p6Yb5EMk-8" value="" style="endArrow=none;html=1;rounded=0;exitX=0.5;exitY=1;exitDx=0;exitDy=0;entryX=0.5;entryY=0;entryDx=0;entryDy=0;" edge="1" parent="1" source="ggw4CyNRnTy3p6Yb5EMk-6" target="ggw4CyNRnTy3p6Yb5EMk-10">
          <mxGeometry width="50" height="50" relative="1" as="geometry">
            <mxPoint x="390" y="420" as="sourcePoint" />
            <mxPoint x="363.33333333333326" y="473.33333333333326" as="targetPoint" />
          </mxGeometry>
        </mxCell>
        <mxCell id="ggw4CyNRnTy3p6Yb5EMk-10" value="&amp;nbsp;Empréstimo.&lt;br&gt;&lt;br&gt;codigo&lt;br&gt;data_emprest&lt;br&gt;concluido&lt;br&gt;&lt;div&gt;&lt;br&gt;&lt;/div&gt;" style="whiteSpace=wrap;html=1;aspect=fixed;" vertex="1" parent="1">
          <mxGeometry x="275" y="440" width="130" height="130" as="geometry" />
        </mxCell>
        <mxCell id="ggw4CyNRnTy3p6Yb5EMk-12" value="Cliente&lt;br&gt;&lt;br&gt;CPF&lt;br&gt;nome&lt;br&gt;email&lt;br&gt;logradouro&lt;br&gt;numero&lt;br&gt;bairro&lt;br&gt;complemento&lt;br&gt;CEP&lt;br&gt;data_nasc" style="whiteSpace=wrap;html=1;aspect=fixed;" vertex="1" parent="1">
          <mxGeometry x="530" y="400" width="210" height="210" as="geometry" />
        </mxCell>
        <mxCell id="ggw4CyNRnTy3p6Yb5EMk-13" value="" style="endArrow=none;html=1;rounded=0;exitX=1;exitY=0.5;exitDx=0;exitDy=0;entryX=0;entryY=0.5;entryDx=0;entryDy=0;" edge="1" parent="1" source="ggw4CyNRnTy3p6Yb5EMk-10" target="ggw4CyNRnTy3p6Yb5EMk-12">
          <mxGeometry width="50" height="50" relative="1" as="geometry">
            <mxPoint x="390" y="440" as="sourcePoint" />
            <mxPoint x="440" y="390" as="targetPoint" />
          </mxGeometry>
        </mxCell>
        <mxCell id="ggw4CyNRnTy3p6Yb5EMk-15" value="Unidade de&lt;br&gt;jogo" style="rhombus;whiteSpace=wrap;html=1;" vertex="1" parent="1">
          <mxGeometry x="90" y="300" width="80" height="80" as="geometry" />
        </mxCell>
        <mxCell id="ggw4CyNRnTy3p6Yb5EMk-16" value="" style="endArrow=none;html=1;rounded=0;exitX=1;exitY=0.5;exitDx=0;exitDy=0;entryX=0;entryY=0.5;entryDx=0;entryDy=0;" edge="1" parent="1" source="ggw4CyNRnTy3p6Yb5EMk-15" target="ggw4CyNRnTy3p6Yb5EMk-6">
          <mxGeometry width="50" height="50" relative="1" as="geometry">
            <mxPoint x="390" y="440" as="sourcePoint" />
            <mxPoint x="440" y="390" as="targetPoint" />
          </mxGeometry>
        </mxCell>
        <mxCell id="ggw4CyNRnTy3p6Yb5EMk-17" value="Pertence" style="rhombus;whiteSpace=wrap;html=1;" vertex="1" parent="1">
          <mxGeometry x="90" y="170" width="80" height="80" as="geometry" />
        </mxCell>
        <mxCell id="ggw4CyNRnTy3p6Yb5EMk-18" value="" style="endArrow=none;html=1;rounded=0;entryX=1;entryY=0.5;entryDx=0;entryDy=0;exitX=0;exitY=0.5;exitDx=0;exitDy=0;" edge="1" parent="1" source="ggw4CyNRnTy3p6Yb5EMk-1" target="ggw4CyNRnTy3p6Yb5EMk-17">
          <mxGeometry width="50" height="50" relative="1" as="geometry">
            <mxPoint x="390" y="440" as="sourcePoint" />
            <mxPoint x="440" y="390" as="targetPoint" />
          </mxGeometry>
        </mxCell>
        <mxCell id="ggw4CyNRnTy3p6Yb5EMk-19" value="Jogo de tabuleiro&lt;br&gt;&lt;br&gt;Codigo&lt;br&gt;nome&lt;br&gt;min_jogadores&lt;br&gt;max_jogadores&lt;br&gt;complexidade&lt;br&gt;tempo_medio" style="whiteSpace=wrap;html=1;aspect=fixed;" vertex="1" parent="1">
          <mxGeometry x="-260" y="150" width="220" height="220" as="geometry" />
        </mxCell>
        <mxCell id="ggw4CyNRnTy3p6Yb5EMk-22" value="venda" style="rhombus;whiteSpace=wrap;html=1;" vertex="1" parent="1">
          <mxGeometry x="110" y="465" width="80" height="80" as="geometry" />
        </mxCell>
        <mxCell id="ggw4CyNRnTy3p6Yb5EMk-23" value="" style="endArrow=none;html=1;rounded=0;exitX=0;exitY=0.5;exitDx=0;exitDy=0;entryX=1;entryY=0.5;entryDx=0;entryDy=0;" edge="1" parent="1" source="ggw4CyNRnTy3p6Yb5EMk-10" target="ggw4CyNRnTy3p6Yb5EMk-22">
          <mxGeometry width="50" height="50" relative="1" as="geometry">
            <mxPoint x="390" y="440" as="sourcePoint" />
            <mxPoint x="440" y="390" as="targetPoint" />
          </mxGeometry>
        </mxCell>
        <mxCell id="ggw4CyNRnTy3p6Yb5EMk-24" value="Tipo" style="rhombus;whiteSpace=wrap;html=1;" vertex="1" parent="1">
          <mxGeometry x="10" y="465" width="80" height="80" as="geometry" />
        </mxCell>
        <mxCell id="ggw4CyNRnTy3p6Yb5EMk-27" value="estado" style="ellipse;whiteSpace=wrap;html=1;" vertex="1" parent="1">
          <mxGeometry y="390" width="100" height="50" as="geometry" />
        </mxCell>
        <mxCell id="ggw4CyNRnTy3p6Yb5EMk-28" value="periodo&lt;br&gt;emprest" style="ellipse;whiteSpace=wrap;html=1;" vertex="1" parent="1">
          <mxGeometry y="600" width="100" height="50" as="geometry" />
        </mxCell>
        <mxCell id="ggw4CyNRnTy3p6Yb5EMk-29" value="" style="endArrow=none;html=1;rounded=0;exitX=0.5;exitY=1;exitDx=0;exitDy=0;entryX=0.5;entryY=0;entryDx=0;entryDy=0;" edge="1" parent="1" source="ggw4CyNRnTy3p6Yb5EMk-24" target="ggw4CyNRnTy3p6Yb5EMk-28">
          <mxGeometry width="50" height="50" relative="1" as="geometry">
            <mxPoint x="430" y="440" as="sourcePoint" />
            <mxPoint x="480" y="390" as="targetPoint" />
          </mxGeometry>
        </mxCell>
        <mxCell id="ggw4CyNRnTy3p6Yb5EMk-31" value="" style="endArrow=none;html=1;rounded=0;exitX=0.5;exitY=1;exitDx=0;exitDy=0;entryX=0.5;entryY=0;entryDx=0;entryDy=0;" edge="1" parent="1" source="ggw4CyNRnTy3p6Yb5EMk-27" target="ggw4CyNRnTy3p6Yb5EMk-24">
          <mxGeometry width="50" height="50" relative="1" as="geometry">
            <mxPoint x="430" y="440" as="sourcePoint" />
            <mxPoint x="50" y="460" as="targetPoint" />
          </mxGeometry>
        </mxCell>
        <mxCell id="ggw4CyNRnTy3p6Yb5EMk-32" value="" style="endArrow=none;html=1;rounded=0;exitX=1;exitY=0.5;exitDx=0;exitDy=0;" edge="1" parent="1" source="ggw4CyNRnTy3p6Yb5EMk-24">
          <mxGeometry width="50" height="50" relative="1" as="geometry">
            <mxPoint x="78" y="510" as="sourcePoint" />
            <mxPoint x="110" y="505" as="targetPoint" />
          </mxGeometry>
        </mxCell>
        <mxCell id="ggw4CyNRnTy3p6Yb5EMk-33" value="Unidade de jogo&lt;br&gt;&lt;br&gt;codigo&lt;br&gt;estado&lt;br&gt;tipo&lt;br&gt;preco&lt;div&gt;periodo_emprest&lt;/div&gt;" style="whiteSpace=wrap;html=1;aspect=fixed;" vertex="1" parent="1">
          <mxGeometry x="-225" y="490" width="150" height="150" as="geometry" />
        </mxCell>
        <mxCell id="ggw4CyNRnTy3p6Yb5EMk-34" value="" style="endArrow=none;html=1;rounded=0;exitX=0.987;exitY=0.087;exitDx=0;exitDy=0;entryX=0;entryY=0.5;entryDx=0;entryDy=0;exitPerimeter=0;" edge="1" parent="1" source="ggw4CyNRnTy3p6Yb5EMk-33" target="ggw4CyNRnTy3p6Yb5EMk-24">
          <mxGeometry width="50" height="50" relative="1" as="geometry">
            <mxPoint x="390" y="440" as="sourcePoint" />
            <mxPoint x="440" y="390" as="targetPoint" />
          </mxGeometry>
        </mxCell>
        <mxCell id="ggw4CyNRnTy3p6Yb5EMk-35" style="edgeStyle=orthogonalEdgeStyle;rounded=0;orthogonalLoop=1;jettySize=auto;html=1;exitX=0;exitY=0.5;exitDx=0;exitDy=0;entryX=1;entryY=0.864;entryDx=0;entryDy=0;entryPerimeter=0;" edge="1" parent="1" source="ggw4CyNRnTy3p6Yb5EMk-15" target="ggw4CyNRnTy3p6Yb5EMk-19">
          <mxGeometry relative="1" as="geometry" />
        </mxCell>
        <mxCell id="ggw4CyNRnTy3p6Yb5EMk-37" value="" style="endArrow=none;html=1;rounded=0;exitX=0;exitY=0.5;exitDx=0;exitDy=0;entryX=1;entryY=0.273;entryDx=0;entryDy=0;entryPerimeter=0;" edge="1" parent="1" source="ggw4CyNRnTy3p6Yb5EMk-17" target="ggw4CyNRnTy3p6Yb5EMk-19">
          <mxGeometry width="50" height="50" relative="1" as="geometry">
            <mxPoint x="210" y="480" as="sourcePoint" />
            <mxPoint x="260" y="430" as="targetPoint" />
          </mxGeometry>
        </mxCell>
        <mxCell id="ggw4CyNRnTy3p6Yb5EMk-39" value="" style="endArrow=none;html=1;rounded=0;exitX=0.5;exitY=0;exitDx=0;exitDy=0;entryX=0.5;entryY=1;entryDx=0;entryDy=0;" edge="1" parent="1" source="ggw4CyNRnTy3p6Yb5EMk-33" target="ggw4CyNRnTy3p6Yb5EMk-19">
          <mxGeometry width="50" height="50" relative="1" as="geometry">
            <mxPoint x="210" y="610" as="sourcePoint" />
            <mxPoint x="260" y="560" as="targetPoint" />
          </mxGeometry>
        </mxCell>
        <mxCell id="ggw4CyNRnTy3p6Yb5EMk-38" value="Unidade de&lt;br&gt;jogo" style="rhombus;whiteSpace=wrap;html=1;" vertex="1" parent="1">
          <mxGeometry x="-190" y="390" width="80" height="80" as="geometry" />
        </mxCell>
      </root>
    </mxGraphModel>
  </diagram>
</mxfile>
